<svg width="27" height="24" viewBox="0 0 27 24" fill="none" xmlns="http://www.w3.org/2000/svg">
    <path d="M23.8548 5.09269C23.3426 5.09348 22.8382 5.22042 22.3853 5.46256L14.2133 0.197785C14.0151 0.0686608 13.7843 0 13.5486 0C13.3128 0 13.082 0.0686608 12.8838 0.197785L2.4959 6.89483C2.32007 7.0074 2.17515 7.16306 2.07458 7.3474C1.974 7.53174 1.92102 7.73878 1.92053 7.94935V17.8651C1.25094 18.1535 0.700383 18.6673 0.362019 19.3193C0.0236548 19.9714 -0.0817486 20.7218 0.0636806 21.4435C0.20911 22.1651 0.596432 22.8138 1.16008 23.2797C1.72373 23.7455 2.4291 24 3.15681 24C3.88452 24 4.58989 23.7455 5.15354 23.2797C5.71719 22.8138 6.10449 22.1651 6.24992 21.4435C6.39534 20.7218 6.28996 19.9714 5.9516 19.3193C5.61324 18.6673 5.06268 18.1535 4.39309 17.8651V8.65763L13.5525 2.75541L20.8147 7.47718C20.5892 8.24155 20.6589 9.06402 21.0097 9.77837C21.3604 10.4927 21.966 11.0457 22.7041 11.3254V21.249H11.4998V14.1664H15.5507V19.6751C15.5507 19.7335 15.5737 19.7896 15.6145 19.8309C15.6553 19.8722 15.7107 19.8954 15.7684 19.8954H17.8056C17.8633 19.8954 17.9187 19.8722 17.9595 19.8309C18.0003 19.7896 18.0233 19.7335 18.0233 19.6751V12.8443C18.0233 12.5124 17.893 12.1941 17.6612 11.9595C17.4293 11.7248 17.1149 11.593 16.787 11.593H10.2635C9.93561 11.593 9.62114 11.7248 9.38929 11.9595C9.15744 12.1941 9.02719 12.5124 9.02719 12.8443V22.4373C9.02719 22.7692 9.15744 23.0875 9.38929 23.3221C9.62114 23.5568 9.93561 23.6886 10.2635 23.6886H23.9403C24.1027 23.6886 24.2634 23.6562 24.4134 23.5934C24.5634 23.5305 24.6997 23.4383 24.8145 23.3221C24.9293 23.2059 25.0204 23.068 25.0825 22.9162C25.1446 22.7644 25.1766 22.6016 25.1766 22.4373V11.1838C25.8271 10.877 26.3548 10.3551 26.6729 9.70404C26.991 9.053 27.0804 8.31169 26.9265 7.60231C26.7726 6.89292 26.3844 6.2578 25.826 5.8016C25.2677 5.3454 24.5724 5.09536 23.8548 5.09269ZM3.18013 21.9888C2.94639 21.9888 2.71787 21.9186 2.52352 21.7872C2.32916 21.6557 2.1777 21.4689 2.08824 21.2503C1.99879 21.0318 1.9754 20.7913 2.021 20.5592C2.0666 20.3272 2.17916 20.114 2.34444 19.9468C2.50973 19.7795 2.72031 19.6655 2.94956 19.6194C3.17882 19.5732 3.41644 19.5969 3.6324 19.6875C3.84836 19.778 4.03294 19.9313 4.1628 20.128C4.29267 20.3247 4.36198 20.556 4.36198 20.7926C4.36301 20.9503 4.33319 21.1067 4.27426 21.2528C4.21532 21.3988 4.12843 21.5316 4.01858 21.6435C3.90873 21.7554 3.7781 21.8442 3.6342 21.9048C3.49031 21.9654 3.33599 21.9966 3.18013 21.9966V21.9888ZM23.8548 9.48394C23.6211 9.48394 23.3925 9.41379 23.1982 9.28235C23.0038 9.15091 22.8524 8.96409 22.7629 8.74551C22.6735 8.52694 22.6501 8.28643 22.6957 8.05439C22.7413 7.82235 22.8538 7.60922 23.0191 7.44193C23.1844 7.27464 23.395 7.16071 23.6243 7.11455C23.8535 7.0684 24.0911 7.09209 24.3071 7.18263C24.523 7.27316 24.7076 7.42648 24.8375 7.62319C24.9674 7.8199 25.0367 8.05117 25.0367 8.28775C25.0367 8.44484 25.0061 8.60039 24.9467 8.74551C24.8873 8.89064 24.8003 9.0225 24.6905 9.13358C24.5808 9.24466 24.4505 9.33277 24.3071 9.39288C24.1637 9.453 24.01 9.48394 23.8548 9.48394Z"
          fill="url(#paint0_linear)"/>
    <defs>
        <linearGradient id="paint0_linear" x1="26.0357" y1="0.6" x2="13.1023" y2="28.3144"
                        gradientUnits="userSpaceOnUse">
            <stop stop-color="#A726E9"/>
            <stop offset="1" stop-color="#E435A4"/>
        </linearGradient>
    </defs>
</svg>
