<svg width="144" height="128" viewBox="0 0 144 128" fill="none" xmlns="http://www.w3.org/2000/svg">
<path d="M127.226 27.161C124.494 27.1652 121.804 27.8423 119.388 29.1337L75.8045 1.05485C74.7471 0.366191 73.5164 0 72.259 0C71.0016 0 69.7709 0.366191 68.7135 1.05485L13.3115 36.7724C12.3737 37.3728 11.6008 38.203 11.0644 39.1861C10.528 40.1693 10.2454 41.2735 10.2428 42.3966V95.2804C6.6717 96.8188 3.73538 99.5587 1.93077 103.036C0.126159 106.514 -0.435992 110.516 0.33963 114.365C1.11525 118.214 3.18097 121.674 6.18709 124.158C9.19321 126.643 12.9552 128 16.8363 128C20.7175 128 24.4794 126.643 27.4855 124.158C30.4917 121.674 32.5573 118.214 33.3329 114.365C34.1085 110.516 33.5465 106.514 31.7419 103.036C29.9373 99.5587 27.0009 96.8188 23.4298 95.2804V46.174L72.2798 14.6955L111.012 39.8783C109.809 43.9549 110.181 48.3414 112.052 52.1513C113.922 55.9611 117.152 58.9102 121.088 60.4023V113.328H61.332V75.5539H82.9372V104.934C82.9372 105.246 83.0596 105.544 83.2774 105.765C83.4951 105.985 83.7903 106.109 84.0982 106.109H94.963C95.2709 106.109 95.5663 105.985 95.784 105.765C96.0018 105.544 96.1242 105.246 96.1242 104.934V68.5027C96.1242 66.7328 95.4295 65.0354 94.193 63.7839C92.9565 62.5324 91.2793 61.8293 89.5306 61.8293H54.7387C52.9899 61.8293 51.3127 62.5324 50.0762 63.7839C48.8397 65.0354 48.145 66.7328 48.145 68.5027V119.666C48.145 121.436 48.8397 123.133 50.0762 124.385C51.3127 125.636 52.9899 126.339 54.7387 126.339H127.682C128.548 126.339 129.405 126.167 130.205 125.831C131.005 125.496 131.732 125.004 132.344 124.385C132.956 123.765 133.442 123.029 133.773 122.22C134.105 121.41 134.275 120.542 134.275 119.666V59.6468C137.744 58.0106 140.559 55.2271 142.255 51.7549C143.952 48.2827 144.429 44.329 143.608 40.5456C142.787 36.7623 140.717 33.3749 137.739 30.9419C134.761 28.5088 131.053 27.1753 127.226 27.161ZM16.9607 117.273C15.7141 117.273 14.4953 116.899 13.4588 116.198C12.4222 115.497 11.6144 114.501 11.1373 113.335C10.6602 112.169 10.5354 110.887 10.7787 109.649C11.0219 108.412 11.6222 107.275 12.5037 106.383C13.3852 105.49 14.5083 104.883 15.731 104.637C16.9537 104.391 18.221 104.517 19.3728 105C20.5246 105.483 21.509 106.3 22.2016 107.349C22.8942 108.399 23.2639 109.632 23.2639 110.894C23.2694 111.735 23.1104 112.569 22.796 113.348C22.4817 114.127 22.0183 114.835 21.4324 115.432C20.8466 116.029 20.1499 116.503 19.3824 116.826C18.615 117.149 17.792 117.315 16.9607 117.315V117.273ZM127.226 50.581C125.979 50.581 124.76 50.2069 123.724 49.5059C122.687 48.8048 121.879 47.8085 121.402 46.6427C120.925 45.477 120.8 44.1943 121.044 42.9567C121.287 41.7192 121.887 40.5825 122.768 39.6903C123.65 38.7981 124.773 38.1904 125.996 37.9443C127.219 37.6981 128.486 37.8245 129.638 38.3073C130.789 38.7902 131.774 39.6079 132.467 40.657C133.159 41.7061 133.529 42.9396 133.529 44.2014C133.529 45.0391 133.366 45.8687 133.049 46.6427C132.732 47.4168 132.268 48.12 131.683 48.7124C131.097 49.3048 130.402 49.7748 129.638 50.0954C128.873 50.416 128.053 50.581 127.226 50.581Z" fill="url(#paint0_linear)"/>
<defs>
<linearGradient id="paint0_linear" x1="138.857" y1="3.2" x2="69.879" y2="151.01" gradientUnits="userSpaceOnUse">
<stop stop-color="#A726E9"/>
<stop offset="1" stop-color="#E435A4"/>
</linearGradient>
</defs>
</svg>
