<svg width="214" height="214" viewBox="0 0 214 214" fill="none" xmlns="http://www.w3.org/2000/svg">
    <path d="M107 4.11543C86.6316 4.11544 66.7207 10.1564 49.7861 21.4742C32.8515 32.792 19.6541 48.8781 11.8632 67.6976C4.07227 86.5172 2.03799 107.225 6.01767 127.2C9.99734 147.176 19.8122 165.523 34.2206 179.92C48.629 194.317 66.9836 204.117 86.9627 208.081C106.942 212.044 127.648 209.994 146.461 202.188C165.274 194.382 181.35 181.171 192.654 164.228C203.958 147.284 209.983 127.368 209.967 107C209.923 79.7125 199.058 53.5562 179.755 34.2687C160.453 14.9812 134.288 4.13719 107 4.11543ZM107 214C85.8374 214 65.1501 207.725 47.554 195.967C29.958 184.21 16.2435 167.499 8.14494 147.947C0.0463614 128.395 -2.0726 106.881 2.05602 86.1254C6.18464 65.3694 16.3754 46.3038 31.3396 31.3396C46.3038 16.3754 65.3694 6.18464 86.1254 2.05602C106.881 -2.0726 128.395 0.0463614 147.947 8.14494C167.499 16.2435 184.21 29.958 195.967 47.554C207.725 65.1501 214 85.8374 214 107C214 135.378 202.727 162.594 182.66 182.66C162.594 202.727 135.378 214 107 214Z"
          fill="white"/>
    <path d="M155.15 140.91C147.578 148.4 127.495 152.927 107.083 153.009C86.6705 153.092 66.5051 148.153 58.9328 140.91C40.249 122.309 85.7651 50.8656 107.001 50.7833C128.236 50.701 173.752 122.309 155.068 141.322"
          fill="white"/>
</svg>
